<svg xmlns="http://www.w3.org/2000/svg" width="305" height="285" viewBox="0 0 305 285">
    <defs>
        <style>
            .cls-1{fill:#59c0a5}.cls-2{fill:#419a82}.cls-3{clip-path:url(#clip-path)}.cls-4{fill:#49ac92}.cls-5{fill:#205a4b}.cls-6{fill:#287863}.cls-7{filter:url(#Rectangle_106)}.cls-8{filter:url(#Rectangle_107)}
        </style>
        <filter id="Rectangle_107" width="305" height="285" x="0" y="0">
            <feOffset dy="8"/>
            <feGaussianBlur result="blur" stdDeviation="7.5"/>
            <feFlood flood-opacity=".2"/>
            <feComposite in2="blur" operator="in"/>
            <feComposite in="SourceGraphic"/>
        </filter>
        <filter id="Rectangle_106" width="269" height="249.5" x="18" y="4.5">
            <feOffset dy="5"/>
            <feGaussianBlur result="blur-2" stdDeviation="1.5"/>
            <feFlood flood-color="#010101" flood-opacity=".051"/>
            <feComposite in2="blur-2" operator="in"/>
            <feComposite in="SourceGraphic"/>
        </filter>
        <clipPath id="clip-path">
            <path id="Rectangle_105" d="M0 0h260v240H0z" class="cls-1" transform="translate(365 1825)"/>
        </clipPath>
    </defs>
    <g id="Group_657" transform="translate(-393.5 -587.5)">
        <g class="cls-8" transform="translate(393.5 587.5)">
            <rect id="Rectangle_107-2" width="260" height="240" class="cls-2" rx="5" transform="translate(22.5 14.5)"/>
        </g>
        <g class="cls-7" transform="translate(393.5 587.5)">
            <rect id="Rectangle_106-2" width="260" height="240" class="cls-1" rx="5" transform="translate(22.5 4.5)"/>
        </g>
        <g id="Mask_Group_21" class="cls-3" transform="translate(51 -1233)">
            <g id="Group_585" transform="translate(234 702.158)">
                <g id="Group_90" transform="translate(131 1222)">
                    <path id="Path_115" d="M152.076 0A46.214 46.214 0 0 0 106 46.022a46.168 46.168 0 0 0 46.022 46.022 46.168 46.168 0 0 0 46.022-46.022A46.121 46.121 0 0 0 152.076 0zm33.629 46.076a33.808 33.808 0 0 1-33.683 33.684 33.808 33.808 0 0 1-33.684-33.684 33.808 33.808 0 0 1 33.684-33.684 33.737 33.737 0 0 1 33.684 33.684z" class="cls-4"
                          transform="translate(-48.132)"/>
                    <path id="Path_116" d="M46.076 0A46.214 46.214 0 0 0 0 46.022a46.168 46.168 0 0 0 46.022 46.022 46.168 46.168 0 0 0 46.022-46.022A46.121 46.121 0 0 0 46.076 0zm33.63 46.076A33.808 33.808 0 0 1 46.022 79.76a33.808 33.808 0 0 1-33.684-33.684 33.808 33.808 0 0 1 33.684-33.683 33.737 33.737 0 0 1 33.684 33.683z" class="cls-2"/>
                    <path id="Path_117" d="M46.076 168.7A46.214 46.214 0 0 0 0 214.722a46.168 46.168 0 0 0 46.022 46.022 46.168 46.168 0 0 0 46.022-46.022A46.121 46.121 0 0 0 46.076 168.7zm33.629 46.022a33.808 33.808 0 0 1-33.684 33.684 33.808 33.808 0 0 1-33.684-33.684 33.808 33.808 0 0 1 33.684-33.684 33.807 33.807 0 0 1 33.684 33.684z" class="cls-5"
                          transform="translate(-34 -83.602)"/>
                    <path id="Path_118" d="M161.389 105.379a8.819 8.819 0 0 1-8.789-8.789 8.819 8.819 0 0 1 8.789-8.789 8.819 8.819 0 0 1 8.789 8.789 8.819 8.819 0 0 1-8.789 8.789z" class="cls-6"
                          transform="translate(-69.291 -39.868)"/>
                    <path id="Path_119" d="M294.93 188.059a23.6 23.6 0 0 1-23.53-23.53A23.6 23.6 0 0 1 294.93 141a23.6 23.6 0 0 1 23.53 23.53 23.567 23.567 0 0 1-23.53 23.529z" class="cls-6"
                          transform="translate(-123.235 -64.024)"/>
                    <path id="Path_120" d="M276.176 96a46.214 46.214 0 0 0-46.076 46.022v85.711h12.393v-85.711a33.808 33.808 0 0 1 33.684-33.684 33.808 33.808 0 0 1 33.684 33.684v85.711h12.393v-85.711A46.25 46.25 0 0 0 276.176 96z" class="cls-2"
                          transform="translate(-104.482 -43.591)"/>
                </g>
            </g>
        </g>
    </g>
</svg>
