<?xml version="1.0" encoding="iso-8859-1"?>
<!-- Generator: Adobe Illustrator 19.0.0, SVG Export Plug-In . SVG Version: 6.00 Build 0)  -->
<svg version="1.1" id="Layer_1" xmlns="http://www.w3.org/2000/svg" xmlns:xlink="http://www.w3.org/1999/xlink" x="0px" y="0px"
	 viewBox="0 0 512 512" style="enable-background:new 0 0 512 512;" xml:space="preserve">
<rect x="83.277" y="46.265" style="fill:#D38D94;" width="345.446" height="456.482"/>
<rect x="256" y="46.265" style="fill:#C18089;" width="172.723" height="456.482"/>
<rect x="231.325" y="453.398" style="fill:#BFA993;" width="49.349" height="49.349"/>
<rect x="256" y="453.398" style="fill:#B29A7E;" width="24.675" height="49.349"/>
<path style="fill:#95D5A7;" d="M138.795,502.747c10.22,0,18.506-8.287,18.506-18.506c0-6.557-3.419-12.304-8.561-15.592
	c1.516-2.685,2.392-5.78,2.392-9.083c0-10.22-8.286-18.506-18.506-18.506c-4.746,0-9.062,1.802-12.337,4.741
	c-3.276-2.939-7.591-4.741-12.337-4.741c-4.746,0-9.062,1.802-12.337,4.741c-3.276-2.939-7.591-4.741-12.337-4.741
	c-10.22,0-18.506,8.286-18.506,18.506c0,3.304,0.876,6.398,2.392,9.083c-5.142,3.288-8.561,9.033-8.561,15.592
	c0,10.219,8.286,18.506,18.506,18.506H138.795z"/>
<path style="fill:#80CB93;" d="M434.892,502.747c10.22,0,18.506-8.287,18.506-18.506c0-6.557-3.42-12.304-8.562-15.592
	c1.518-2.685,2.393-5.78,2.393-9.083c0-10.22-8.286-18.506-18.506-18.506c-4.747,0-9.062,1.802-12.337,4.741
	c-3.276-2.939-7.59-4.741-12.337-4.741c-4.747,0-9.062,1.802-12.337,4.741c-3.276-2.939-7.59-4.741-12.337-4.741
	c-10.22,0-18.506,8.286-18.506,18.506c0,3.304,0.876,6.398,2.393,9.083c-5.142,3.288-8.562,9.033-8.562,15.592
	c0,10.219,8.286,18.506,18.506,18.506H434.892z"/>
<path style="fill:#88888F;" d="M256,512c-5.11,0-9.253-4.142-9.253-9.253v-24.675c0-5.111,4.143-9.253,9.253-9.253
	c5.111,0,9.253,4.142,9.253,9.253v24.675C265.253,507.858,261.111,512,256,512z"/>
<rect x="132.627" y="107.952" style="fill:#D1E5F5;" width="24.675" height="37.012"/>
<polygon style="fill:#B4D8F1;" points="132.627,144.964 157.301,144.964 157.301,120.289 "/>
<rect x="206.034" y="107.952" style="fill:#D1E5F5;" width="24.675" height="37.012"/>
<polygon style="fill:#B4D8F1;" points="206.034,144.964 230.708,144.964 230.708,120.289 "/>
<rect x="280.058" y="107.952" style="fill:#D1E5F5;" width="24.675" height="37.012"/>
<polygon style="fill:#B4D8F1;" points="280.058,144.964 304.733,144.964 304.733,120.289 "/>
<rect x="354.082" y="107.952" style="fill:#D1E5F5;" width="24.675" height="37.012"/>
<polygon style="fill:#B4D8F1;" points="354.082,144.964 378.757,144.964 378.757,120.289 "/>
<rect x="132.627" y="194.313" style="fill:#D1E5F5;" width="24.675" height="37.012"/>
<polygon style="fill:#B4D8F1;" points="132.627,231.325 157.301,231.325 157.301,206.651 "/>
<rect x="206.034" y="194.313" style="fill:#D1E5F5;" width="24.675" height="37.012"/>
<polygon style="fill:#B4D8F1;" points="206.034,231.325 230.708,231.325 230.708,206.651 "/>
<rect x="280.058" y="194.313" style="fill:#D1E5F5;" width="24.675" height="37.012"/>
<polygon style="fill:#B4D8F1;" points="280.058,231.325 304.733,231.325 304.733,206.651 "/>
<rect x="354.082" y="194.313" style="fill:#D1E5F5;" width="24.675" height="37.012"/>
<polygon style="fill:#B4D8F1;" points="354.082,231.325 378.757,231.325 378.757,206.651 "/>
<g>
	<rect x="132.627" y="280.675" style="fill:#D1E5F5;" width="24.675" height="37.012"/>
	<rect x="206.034" y="280.675" style="fill:#D1E5F5;" width="24.675" height="37.012"/>
</g>
<polygon style="fill:#B4D8F1;" points="206.034,317.687 230.708,317.687 230.708,293.012 "/>
<rect x="280.058" y="280.675" style="fill:#D1E5F5;" width="24.675" height="37.012"/>
<polygon style="fill:#B4D8F1;" points="280.058,317.687 304.733,317.687 304.733,293.012 "/>
<rect x="354.082" y="280.675" style="fill:#D1E5F5;" width="24.675" height="37.012"/>
<polygon style="fill:#B4D8F1;" points="354.082,317.687 378.757,317.687 378.757,293.012 "/>
<rect x="132.627" y="367.036" style="fill:#D1E5F5;" width="24.675" height="37.012"/>
<polygon style="fill:#B4D8F1;" points="132.627,404.048 157.301,404.048 157.301,379.374 "/>
<rect x="206.034" y="367.036" style="fill:#D1E5F5;" width="24.675" height="37.012"/>
<polygon style="fill:#B4D8F1;" points="206.034,404.048 230.708,404.048 230.708,379.374 "/>
<rect x="280.058" y="367.036" style="fill:#D1E5F5;" width="24.675" height="37.012"/>
<polygon style="fill:#B4D8F1;" points="280.058,404.048 304.733,404.048 304.733,379.374 "/>
<rect x="354.082" y="367.036" style="fill:#D1E5F5;" width="24.675" height="37.012"/>
<polygon style="fill:#B4D8F1;" points="354.082,404.048 378.757,404.048 378.757,379.374 "/>
<rect x="70.94" y="9.253" style="fill:#F8F8F9;" width="370.12" height="49.349"/>
<rect x="256" y="9.253" style="fill:#EDEDED;" width="185.06" height="49.349"/>
<path style="fill:#88888F;" d="M465.735,512H46.265c-5.111,0-9.253-4.142-9.253-9.253c0-5.111,4.142-9.253,9.253-9.253h419.47
	c5.111,0,9.253,4.142,9.253,9.253C474.988,507.858,470.846,512,465.735,512z"/>
<path style="fill:#797781;" d="M465.735,493.494H256V512h209.735c5.111,0,9.253-4.142,9.253-9.253
	C474.988,497.636,470.846,493.494,465.735,493.494z"/>
<g>
	<path style="fill:#2E2D31;" d="M465.735,493.494h-4.676c1.028-2.897,1.592-6.01,1.592-9.253c0-6.861-2.498-13.327-6.91-18.323
		c0.49-2.078,0.741-4.209,0.741-6.351c0-12.062-7.737-22.347-18.506-26.168V67.855h3.084c5.111,0,9.253-4.142,9.253-9.253V9.253
		c0-5.111-4.142-9.253-9.253-9.253H70.94c-5.11,0-9.253,4.142-9.253,9.253v49.349c0,5.111,4.143,9.253,9.253,9.253h3.084v365.543
		c-10.769,3.821-18.506,14.105-18.506,26.168c0,2.142,0.252,4.275,0.741,6.351c-4.412,4.997-6.91,11.463-6.91,18.323
		c0,3.243,0.565,6.356,1.592,9.253h-4.676c-5.11,0-9.253,4.142-9.253,9.253c0,5.111,4.143,9.253,9.253,9.253h419.47
		c5.111,0,9.253-4.142,9.253-9.253C474.988,497.636,470.846,493.494,465.735,493.494z M80.193,18.506h351.614v30.843h-3.084H83.277
		h-3.084V18.506z M419.47,67.855v365.549c-1.052,0.375-2.084,0.807-3.084,1.308c-3.806-1.897-8.021-2.904-12.337-2.904
		c-4.317,0-8.531,1.007-12.337,2.904c-3.806-1.897-8.021-2.904-12.337-2.904c-15.306,0-27.759,12.453-27.759,27.759
		c0,2.142,0.25,4.275,0.741,6.351c-4.411,4.997-6.91,11.461-6.91,18.323c0,3.243,0.564,6.356,1.592,9.253h-57.11v-40.096
		c0-5.111-4.142-9.253-9.253-9.253h-49.349c-5.11,0-9.253,4.142-9.253,9.253v40.095h-57.11c1.026-2.897,1.592-6.01,1.592-9.253
		c0-6.861-2.498-13.327-6.91-18.323c0.49-2.078,0.741-4.209,0.741-6.351c0-15.306-12.452-27.759-27.759-27.759
		c-4.316,0-8.531,1.007-12.337,2.904c-3.806-1.897-8.022-2.904-12.337-2.904s-8.531,1.007-12.337,2.904
		c-1.002-0.5-2.032-0.933-3.084-1.308V67.855H419.47z M77.108,493.494c-5.103,0-9.253-4.15-9.253-9.253
		c0-3.163,1.605-6.077,4.292-7.796c4.14-2.648,5.489-8.069,3.072-12.347c-0.793-1.405-1.195-2.929-1.195-4.531
		c0-5.103,4.15-9.253,9.253-9.253c2.264,0,4.45,0.844,6.159,2.376c3.515,3.155,8.842,3.155,12.357,0
		c1.709-1.532,3.895-2.376,6.159-2.376c2.264,0,4.45,0.844,6.159,2.376c3.515,3.155,8.842,3.155,12.357,0
		c1.709-1.532,3.895-2.376,6.159-2.376c5.103,0,9.253,4.15,9.253,9.253c0,1.603-0.402,3.126-1.195,4.531
		c-2.418,4.279-1.068,9.7,3.072,12.347c2.688,1.719,4.292,4.634,4.292,7.796c0,5.103-4.15,9.253-9.253,9.253H77.108z
		 M240.578,493.494v-30.843h30.843v30.843H240.578z M373.205,493.494c-5.103,0-9.253-4.15-9.253-9.253
		c0-3.163,1.605-6.077,4.292-7.796c4.14-2.648,5.489-8.069,3.071-12.347c-0.793-1.405-1.195-2.929-1.195-4.531
		c0-5.103,4.15-9.253,9.253-9.253c2.902,0,4.951,1.292,6.159,2.376c3.516,3.155,8.841,3.155,12.357,0
		c1.208-1.084,3.258-2.376,6.159-2.376s4.951,1.292,6.159,2.376c3.516,3.155,8.841,3.155,12.357,0
		c1.208-1.084,3.258-2.376,6.159-2.376c5.103,0,9.253,4.15,9.253,9.253c0,1.603-0.402,3.126-1.195,4.531
		c-2.418,4.279-1.07,9.7,3.071,12.347c2.688,1.719,4.292,4.634,4.292,7.796c0,5.103-4.15,9.253-9.253,9.253H373.205z"/>
	<path style="fill:#2E2D31;" d="M120.289,240.578h49.349c5.11,0,9.253-4.142,9.253-9.253s-4.143-9.253-9.253-9.253h-3.084v-27.759
		c0-5.111-4.143-9.253-9.253-9.253h-24.675c-5.11,0-9.253,4.142-9.253,9.253v27.759h-3.084c-5.11,0-9.253,4.142-9.253,9.253
		S115.179,240.578,120.289,240.578z M141.88,203.566h6.169v18.506h-6.169V203.566z"/>
	<path style="fill:#2E2D31;" d="M194.313,240.578h49.349c5.11,0,9.253-4.142,9.253-9.253s-4.143-9.253-9.253-9.253h-3.084v-27.759
		c0-5.111-4.143-9.253-9.253-9.253h-24.675c-5.11,0-9.253,4.142-9.253,9.253v27.759h-3.084c-5.11,0-9.253,4.142-9.253,9.253
		S189.203,240.578,194.313,240.578z M215.904,203.566h6.169v18.506h-6.169V203.566z"/>
	<path style="fill:#2E2D31;" d="M268.337,240.578h49.349c5.111,0,9.253-4.142,9.253-9.253s-4.142-9.253-9.253-9.253h-3.084v-27.759
		c0-5.111-4.142-9.253-9.253-9.253h-24.675c-5.111,0-9.253,4.142-9.253,9.253v27.759h-3.084c-5.111,0-9.253,4.142-9.253,9.253
		S263.226,240.578,268.337,240.578z M289.928,203.566h6.169v18.506h-6.169V203.566z"/>
	<path style="fill:#2E2D31;" d="M342.361,240.578h49.349c5.111,0,9.253-4.142,9.253-9.253s-4.142-9.253-9.253-9.253h-3.084v-27.759
		c0-5.111-4.142-9.253-9.253-9.253h-24.675c-5.111,0-9.253,4.142-9.253,9.253v27.759h-3.084c-5.111,0-9.253,4.142-9.253,9.253
		S337.25,240.578,342.361,240.578z M363.952,203.566h6.169v18.506h-6.169V203.566z"/>
	<path style="fill:#2E2D31;" d="M120.289,154.217h49.349c5.11,0,9.253-4.142,9.253-9.253c0-5.111-4.143-9.253-9.253-9.253h-3.084
		v-27.759c0-5.111-4.143-9.253-9.253-9.253h-24.675c-5.11,0-9.253,4.142-9.253,9.253v27.759h-3.084c-5.11,0-9.253,4.142-9.253,9.253
		C111.036,150.075,115.179,154.217,120.289,154.217z M141.88,117.205h6.169v18.506h-6.169V117.205z"/>
	<path style="fill:#2E2D31;" d="M194.313,154.217h49.349c5.11,0,9.253-4.142,9.253-9.253c0-5.111-4.143-9.253-9.253-9.253h-3.084
		v-27.759c0-5.111-4.143-9.253-9.253-9.253h-24.675c-5.11,0-9.253,4.142-9.253,9.253v27.759h-3.084c-5.11,0-9.253,4.142-9.253,9.253
		C185.06,150.075,189.203,154.217,194.313,154.217z M215.904,117.205h6.169v18.506h-6.169V117.205z"/>
	<path style="fill:#2E2D31;" d="M268.337,154.217h49.349c5.111,0,9.253-4.142,9.253-9.253c0-5.111-4.142-9.253-9.253-9.253h-3.084
		v-27.759c0-5.111-4.142-9.253-9.253-9.253h-24.675c-5.111,0-9.253,4.142-9.253,9.253v27.759h-3.084
		c-5.111,0-9.253,4.142-9.253,9.253C259.084,150.075,263.226,154.217,268.337,154.217z M289.928,117.205h6.169v18.506h-6.169
		V117.205z"/>
	<path style="fill:#2E2D31;" d="M342.361,154.217h49.349c5.111,0,9.253-4.142,9.253-9.253c0-5.111-4.142-9.253-9.253-9.253h-3.084
		v-27.759c0-5.111-4.142-9.253-9.253-9.253h-24.675c-5.111,0-9.253,4.142-9.253,9.253v27.759h-3.084
		c-5.111,0-9.253,4.142-9.253,9.253C333.108,150.075,337.25,154.217,342.361,154.217z M363.952,117.205h6.169v18.506h-6.169V117.205
		z"/>
	<path style="fill:#2E2D31;" d="M120.289,326.94h49.349c5.11,0,9.253-4.142,9.253-9.253c0-5.111-4.143-9.253-9.253-9.253h-3.084
		v-27.759c0-5.111-4.143-9.253-9.253-9.253h-24.675c-5.11,0-9.253,4.142-9.253,9.253v27.759h-3.084c-5.11,0-9.253,4.142-9.253,9.253
		C111.036,322.798,115.179,326.94,120.289,326.94z M141.88,289.928h6.169v18.506h-6.169V289.928z"/>
	<path style="fill:#2E2D31;" d="M194.313,326.94h49.349c5.11,0,9.253-4.142,9.253-9.253c0-5.111-4.143-9.253-9.253-9.253h-3.084
		v-27.759c0-5.111-4.143-9.253-9.253-9.253h-24.675c-5.11,0-9.253,4.142-9.253,9.253v27.759h-3.084c-5.11,0-9.253,4.142-9.253,9.253
		C185.06,322.798,189.203,326.94,194.313,326.94z M215.904,289.928h6.169v18.506h-6.169V289.928z"/>
	<path style="fill:#2E2D31;" d="M268.337,326.94h49.349c5.111,0,9.253-4.142,9.253-9.253c0-5.111-4.142-9.253-9.253-9.253h-3.084
		v-27.759c0-5.111-4.142-9.253-9.253-9.253h-24.675c-5.111,0-9.253,4.142-9.253,9.253v27.759h-3.084
		c-5.111,0-9.253,4.142-9.253,9.253C259.084,322.798,263.226,326.94,268.337,326.94z M289.928,289.928h6.169v18.506h-6.169V289.928z
		"/>
	<path style="fill:#2E2D31;" d="M342.361,326.94h49.349c5.111,0,9.253-4.142,9.253-9.253c0-5.111-4.142-9.253-9.253-9.253h-3.084
		v-27.759c0-5.111-4.142-9.253-9.253-9.253h-24.675c-5.111,0-9.253,4.142-9.253,9.253v27.759h-3.084
		c-5.111,0-9.253,4.142-9.253,9.253C333.108,322.798,337.25,326.94,342.361,326.94z M363.952,289.928h6.169v18.506h-6.169V289.928z"
		/>
	<path style="fill:#2E2D31;" d="M120.289,413.301h49.349c5.11,0,9.253-4.142,9.253-9.253c0-5.111-4.143-9.253-9.253-9.253h-3.084
		v-27.759c0-5.111-4.143-9.253-9.253-9.253h-24.675c-5.11,0-9.253,4.142-9.253,9.253v27.759h-3.084c-5.11,0-9.253,4.142-9.253,9.253
		C111.036,409.16,115.179,413.301,120.289,413.301z M141.88,376.289h6.169v18.506h-6.169V376.289z"/>
	<path style="fill:#2E2D31;" d="M194.313,413.301h49.349c5.11,0,9.253-4.142,9.253-9.253c0-5.111-4.143-9.253-9.253-9.253h-3.084
		v-27.759c0-5.111-4.143-9.253-9.253-9.253h-24.675c-5.11,0-9.253,4.142-9.253,9.253v27.759h-3.084c-5.11,0-9.253,4.142-9.253,9.253
		C185.06,409.16,189.203,413.301,194.313,413.301z M215.904,376.289h6.169v18.506h-6.169V376.289z"/>
	<path style="fill:#2E2D31;" d="M268.337,413.301h49.349c5.111,0,9.253-4.142,9.253-9.253c0-5.111-4.142-9.253-9.253-9.253h-3.084
		v-27.759c0-5.111-4.142-9.253-9.253-9.253h-24.675c-5.111,0-9.253,4.142-9.253,9.253v27.759h-3.084
		c-5.111,0-9.253,4.142-9.253,9.253C259.084,409.16,263.226,413.301,268.337,413.301z M289.928,376.289h6.169v18.506h-6.169V376.289
		z"/>
	<path style="fill:#2E2D31;" d="M342.361,413.301h49.349c5.111,0,9.253-4.142,9.253-9.253c0-5.111-4.142-9.253-9.253-9.253h-3.084
		v-27.759c0-5.111-4.142-9.253-9.253-9.253h-24.675c-5.111,0-9.253,4.142-9.253,9.253v27.759h-3.084
		c-5.111,0-9.253,4.142-9.253,9.253C333.108,409.16,337.25,413.301,342.361,413.301z M363.952,376.289h6.169v18.506h-6.169V376.289z
		"/>
</g>
<g>
</g>
<g>
</g>
<g>
</g>
<g>
</g>
<g>
</g>
<g>
</g>
<g>
</g>
<g>
</g>
<g>
</g>
<g>
</g>
<g>
</g>
<g>
</g>
<g>
</g>
<g>
</g>
<g>
</g>
</svg>
