<svg xmlns="http://www.w3.org/2000/svg" id="Group_5" width="164.37" height="162.27" viewBox="0 0 164.37 162.27">
    <defs>
        <style>
            .cls-1{fill:#ceef8f}.cls-2{fill:#dbffa7}.cls-3{fill:#eaffd9}.cls-4{fill:#1c7f23}.cls-5{fill:#00640d}
        </style>
    </defs>
    <path id="Path_1" d="M77.109 8.751a12.244 12.244 0 0 0-1.83.432 23.414 23.414 0 0 0-2.657.574 16.19 16.19 0 0 0-1.835.7c-1.3.56-2.59 1.138-3.881 1.709-2.6 1.152-5.159 2.367-7.655 3.728a62.391 62.391 0 0 0-5.865 3.758 73.5 73.5 0 0 0-6.32 4.947c-1.087.959-2.172 1.916-3.226 2.908-.323.272-.646.548-.962.829q-3.244 2.867-6.329 5.911c-1.521 1.5-2.968 3.077-4.38 4.678a49.889 49.889 0 0 0-3.561 4.457 99.336 99.336 0 0 0-2.915 4.418 15.728 15.728 0 0 0-.9 1.661 48.647 48.647 0 0 0-3.681 9.959c-.6 2.724-.941 5.491-1.266 8.259-.36 3.059-.753 6.111-1.2 9.16a308.77 308.77 0 0 0-.664 4.7c-.107.82-.2 1.64-.3 2.46-.046.381-.074.762-.111 1.143a9.34 9.34 0 0 0-.053 1.02v.007c-.432 2.8-.757 5.621-.915 8.45a35.662 35.662 0 0 0 1.417 13.111 22 22 0 0 0 2.734 5.426 25.816 25.816 0 0 0 2.346 2.808c.548.6 1.119 1.189 1.709 1.751a3.46 3.46 0 0 0 1.027.759 2.942 2.942 0 0 0 .6.135q.331 1.261.708 2.506a30.922 30.922 0 0 0 2.053 5.135l1.2 2.325a274.832 274.832 0 0 1 3.807 7.625 17.737 17.737 0 0 0 3.849 5.779 28.086 28.086 0 0 0 7.1 4.276c1.247.585 2.553 1.068 3.837 1.563 1.259.483 2.534.98 3.828 1.354 2.9.834 5.818 1.57 8.749 2.285 2.673.65 5.335 1.363 8.041 1.863a86.3 86.3 0 0 0 18.068 1.043c1.452-.039 2.9-.091 4.343-.232a59.576 59.576 0 0 0 4.524-.636 36.76 36.76 0 0 0 1.993-.423q-.2.449-.362.913a3.489 3.489 0 0 0 .2 1.312l.153.07q.658.08 1.317.144a7.556 7.556 0 0 0 1.428-.121c.576-.091 1.14-.237 1.7-.381 1.463-.369 2.889-.829 4.313-1.326 1.28-.446 2.541-.989 3.781-1.535 1.923-.848 3.883-1.64 5.765-2.58a72.192 72.192 0 0 0 7.335-4.536l.962-.636c.636-.3 1.27-.6 1.9-.906.794-.388 1.593-.769 2.381-1.175.827-.427 1.63-.887 2.413-1.394a54.883 54.883 0 0 0 7.537-5.7c1.157-1.071 2.392-2.193 3.54-3.331s2.216-2.355 3.319-3.535c1.124-1.2 2.121-2.539 3.131-3.823.866-1.1 1.593-2.318 2.362-3.484a13.485 13.485 0 0 0 .822-1.463 32.343 32.343 0 0 0 1.34-3.082c.023-.065.046-.128.067-.193a52.424 52.424 0 0 0 3.026-4.864 65.957 65.957 0 0 0 4.141-9.59 73.88 73.88 0 0 0 2.265-7.932 109.248 109.248 0 0 0 2.3-16.79c.144-1.981.269-3.965.418-5.946l-.334-1.01c-.785-2.344-1.493-4.722-2.413-7.017s-1.846-4.6-2.769-6.905l-3.972-8.473q-.854-1.819-1.693-3.642c-.52-.973-1.05-1.944-1.593-2.9-.627-1.1-1.222-2.232-1.888-3.312-.511-.829-1-1.682-1.517-2.508-.053-.023-.1-.049-.158-.072a6.91 6.91 0 0 1-1.879.26 6.827 6.827 0 0 1-4.926-2.042A38.517 38.517 0 0 0 140 30.784c-.474-.425-.948-.85-1.426-1.27q-1.355-.826-2.7-1.679c-1.521-.964-3.033-1.928-4.585-2.829.056-.081.109-.165.16-.249-.249-.174-.5-.346-.748-.511a24.732 24.732 0 0 0-2.787-1.614 56.2 56.2 0 0 1-6.694-2.892c-1.942-1.052-3.742-2.313-5.616-3.475a34.965 34.965 0 0 0-1.726-1c-.462-.255-.936-.495-1.375-.79a8.426 8.426 0 0 1-2.943-2.889 10.921 10.921 0 0 1-.8-1.937.068.068 0 0 1 0-.021q-1.345-.052-2.692-.009c-1.4.049-2.787.139-4.176.293-.764.084-1.526.183-2.29.286a10.752 10.752 0 0 0-3.616 1.2c-.957.009-1.918.023-2.868.109-1.245.111-2.481.251-3.723.393s-2.474.267-3.712.39c-1.264.125-2.539.23-3.788.458a28.7 28.7 0 0 0-3.637.852c-.8.255-1.591.537-2.374.836q.864-1.195 1.635-2.46a2.6 2.6 0 0 0 .857-1.988c.2-.88-.028-1.319-.7-1.319a3.139 3.139 0 0 0-.555.081zM36.944 71.283a15.068 15.068 0 0 0 .85-1.928 9.72 9.72 0 0 0 .395-1.424c.086-.49.123-.989.179-1.484.035-.316.084-.627.132-.941q.219-1.421.441-2.841c.188-1.208.4-2.39.655-3.586l.655-3.064c.1-.49.183-.994.318-1.477q.658-2.383 1.312-4.766c.321-1.161.713-2.306 1.073-3.456.406-1.3.808-2.625 1.287-3.9l.111-.293c.019-.081.033-.16.046-.232.511-.372 1.02-.743 1.526-1.119 2.376-1.761 4.754-3.523 7.144-5.263.91-.664 1.83-1.31 2.757-1.946a130.285 130.285 0 0 1 12.314-7.2c1.078-.462 2.165-.913 3.282-1.273q2.3-.746 4.62-1.442 2.289-.69 4.576-1.4c1.287-.4 2.578-.818 3.886-1.159l-1.157 1.236a36.852 36.852 0 0 0-4.132 5.544c.084-.156-1.577 2.713-.776 3.24a3.228 3.228 0 0 0 1.1.29c.323.06.643.118.966.172.655.107 1.315.211 1.97.33a34.325 34.325 0 0 1 7.926 2.346c2.525 1.117 4.975 2.39 7.47 3.572 2.539 1.205 5.082 2.39 7.569 3.7 2.409 1.268 4.894 2.383 7.209 3.821 2.383 1.48 4.736 3.008 7.137 4.459 2.374 1.435 4.861 2.7 7.356 3.916 1.3.629 2.62 1.2 3.923 1.819a39.468 39.468 0 0 1 3.63 1.977c1.219.743 2.46 1.47 3.642 2.274 1.208.82 2.36 1.672 3.484 2.6a26.221 26.221 0 0 1 2.218 2.062 12.473 12.473 0 0 1 3.335 6.78 47.614 47.614 0 0 1-.327 8.176c-.29 2.836-.622 5.667-.848 8.51-.455 5.676-.729 11.355-1.563 17a77.157 77.157 0 0 1-4.1 16.124c-.123.323-.249.646-.374.966-.128.125-.258.249-.386.369s-.244.211-.365.318q-1.585 1.219-3.226 2.364-.979.617-1.986 1.189c-.8.455-1.644.85-2.488 1.233-2.237.95-4.51 1.8-6.752 2.741-1.31.55-2.625 1.138-3.983 1.558q-2 .624-4.039 1.115a48.549 48.549 0 0 1-8.382 1.377c-2.866.174-5.737.2-8.608.186-2.3-.014-4.587-.121-6.882-.281-1.124-.137-2.244-.279-3.358-.485-1.533-.283-3.043-.627-4.562-.982-2.69-.629-5.375-1.31-8.055-1.986a70.468 70.468 0 0 1-8.041-2.471c-3.779-1.452-7.586-3-10.782-5.542a12.462 12.462 0 0 1-3.317-4.132c-.311-.618-.636-1.229-.934-1.853q-1.031-2.16-2.09-4.311c-1.675-3.412-3.674-6.664-4.861-10.3q-.314-.962-.585-1.937.261-.582.471-1.187a5.937 5.937 0 0 0 .2-1.31 15.93 15.93 0 0 0 .067-1.531c0-.718-.026-1.435-.039-2.153q-.024-1.258-.051-2.515c-.056-2.792-.084-5.586-.167-8.378-.135-4.383-.258-8.763-.725-13.127.039.374.081.75.121 1.124a19.9 19.9 0 0 0-.276-2.1.881.881 0 0 0-.174-.418l-.118-.046a9.761 9.761 0 0 0-1.273-.125 4.624 4.624 0 0 0-2.206.962 35.168 35.168 0 0 0-5.623 4.2c.072-.764.163-1.526.258-2.285z" class="cls-1"
          transform="translate(-12.684 -6.656)"/>
    <path id="Path_2" d="M95.4 35.435a3.208 3.208 0 0 0-2.446.852q-1.279.854-2.56 1.7a58.108 58.108 0 0 0-5.969 5.21 17.05 17.05 0 0 0-1.115-1.085c-.792-.7-1.849-1.521-2.98-1.315a4.663 4.663 0 0 0-1.981.845l-2.463 1.648q-2.076 1.578-4 3.338c.07-.16.142-.318.211-.478q.268-1.15-.88-.88a10.735 10.735 0 0 0-3.18 1.812q-1.052.857-2.109 1.714c-.483.423-.955.855-1.419 1.3a6.761 6.761 0 0 0-2.4.9 15.239 15.239 0 0 0-2.434 1.612 50.51 50.51 0 0 0-5.275 4.639 42.729 42.729 0 0 0-6.273 7.737 12.37 12.37 0 0 0-1.157 2.708 17.361 17.361 0 0 0-.66 3.14 86.654 86.654 0 0 0-3.414 4.065l-5.084 6.464c-.82 1.045-1.563 2.16-2.341 3.235-.3.418-.6.838-.908 1.254a87.274 87.274 0 0 0-2.148 3.089c-.578.871-1.075 1.777-1.584 2.687-.132.3-.267.6-.4.906-.116.5.065.692.548.59a4.152 4.152 0 0 0 .9.063 9.169 9.169 0 0 0 2.813-1.579 38.738 38.738 0 0 0 6.034-5.637c.534-.585 1.015-1.215 1.521-1.823a12.5 12.5 0 0 0 1.173-.857 34.965 34.965 0 0 0 2.687-2.183q.049.941.116 1.881l-1.6 1.965a14.921 14.921 0 0 0-2.237 3.7 11.97 11.97 0 0 0-.734 1.8 3.734 3.734 0 0 0-.016 1.266c.026.344.058.683.1 1.017-.718.757-1.421 1.531-2.123 2.3a48.444 48.444 0 0 0-5.354 7.26 25.676 25.676 0 0 0-1.946 4.188 18.627 18.627 0 0 0-.848 2.973 22.53 22.53 0 0 0-.3 6.018 65.051 65.051 0 0 0 1.147 7.964c.242 1.252.55 2.469.873 3.7.311 1.187.59 2.378.985 3.542.506 1.491 1.008 2.982 1.517 4.471.186.548.437 1.08.65 1.617l1.034 2.564a63.044 63.044 0 0 0 11.155 17.91 41.074 41.074 0 0 0 4.037 4.081 33.831 33.831 0 0 0 4.7 3.375 51.149 51.149 0 0 0 10.717 4.55 53.509 53.509 0 0 0 11.648 2.318l4.8.411c2.645.228 5.3.348 7.953.525 1.333.088 2.662.146 4 .19.634.021 1.282.088 1.916.065.718-.026 1.435-.046 2.155-.072 2.773-.093 5.525-.353 8.278-.676 2.7-.316 5.391-.706 8.083-1.115 1.291-.2 2.569-.476 3.844-.755.627-.137 1.25-.327 1.865-.506.581-.165 1.173-.295 1.744-.481.718-.235 1.428-.49 2.137-.748l-.139.228a3.135 3.135 0 0 0-.729 3.031c1.122.567 2.269-.086 3.286-.611a27.266 27.266 0 0 0 2.711-1.349c1.475-.852 2.861-1.856 4.281-2.8.546-.365 1.059-.79 1.584-1.185 1.533-1.152 3.008-2.446 4.49-3.679.53-.439 1.024-.929 1.535-1.394q2.247-2.052 4.418-4.174 1.338-1.306 2.655-2.638c2.018-2.058 3.979-4.164 5.939-6.28a58.852 58.852 0 0 0 6.122-8.108c.311-.481.595-.973.859-1.477l.139-.235a34.919 34.919 0 0 0 1.965-4.111 9.335 9.335 0 0 0 .439-1.238 4.042 4.042 0 0 0 .111-.446c.167-.427.327-.857.471-1.291q.348-1.038.7-2.079c.207-.613.379-1.243.53-1.872a5.638 5.638 0 0 0 .074-3.358c-.332-.035-.664-.07-.994-.107a13.384 13.384 0 0 0-3.974 2.265c-1 .681-2.46 1.951-2.943 2.371l-.2.172c-.1 0-.2-.007-.295-.007l-.125.046c-.334.121-.664.253-.987.4.209-.555.4-1.117.567-1.684.5-1.712.89-3.465 1.233-5.224a14.656 14.656 0 0 0 1.424-3.735 26.714 26.714 0 0 0 .511-5.755 65.054 65.054 0 0 0-.374-6.52c-.03-.339-.063-.676-.1-1.013.084-.207.165-.413.242-.625a1.764 1.764 0 0 0 .111-.516q.066-.658.146-1.322c.07-.59.137-1.18.188-1.772.058-.662.139-1.324.17-1.986.033-.711.111-1.435.1-2.144-.016-.757-.035-1.517-.053-2.274-.016-.708-.13-1.424-.2-2.128a39.869 39.869 0 0 0-2.529-10.874 55 55 0 0 0-6.631-11.792 33.7 33.7 0 0 0-9.8-9.29 3.174 3.174 0 0 0-3.066.736 36.864 36.864 0 0 0-4.306 3.061c-.469-.646-.948-1.282-1.421-1.925-.33-.448-.692-.876-1.045-1.308-.395-.485-.769-1-1.194-1.461-.95-1.034-1.888-2.069-2.892-3.05a136.17 136.17 0 0 0-3.182-2.985 38.862 38.862 0 0 0-9.439-6.041c-.922-.446-1.846-.892-2.766-1.34-.885-.95-1.77-1.9-2.683-2.82a297.555 297.555 0 0 0-3.094-3.061 27.992 27.992 0 0 0-3.835-3.212 14.121 14.121 0 0 0-2.334-1.275 10.333 10.333 0 0 0-3.767-.729h-.067a7.247 7.247 0 0 0-2.84 1.021zM62.656 62.7l.039.146-.079.1v-.193a.445.445 0 0 1 .042-.051zm67.161 88.942c.2-.128.4-.253.6-.383a5.61 5.61 0 0 1-.051.142q-.118.226-.23.46l-.866.118c.186-.111.367-.223.548-.337zm-12.523 7.56a.156.156 0 0 0-.026.016c.007 0 .016-.009.026-.016z" class="cls-1"
          transform="translate(-23.337 -26.426)"/>
    <path id="Path_3" d="M218.8 280.65c-.035.07-.067.142-.1.211.07.058.137.118.2.179-.033-.13-.065-.258-.1-.388z" class="cls-2"
          transform="translate(-167.907 -216.972)"/>
    <g id="Group_2" transform="translate(32.244 37.044)">
        <path id="Path_8" d="M241.086 229.915c-2.633-.6-19.721-8.761-19.808-8.85-.147-.152 18.972-2.192 21.6-1.6s5.336 3.885 4.753 6.452-3.915 4.594-6.545 3.998z" class="cls-3"
              transform="translate(-210.376 -205.455)"/>
        <path id="Path_9" d="M209.251 271.614c-1.443-2.279-7.783-20.127-7.781-20.252.005-.212 14.984 11.842 16.427 14.121s1.037 6.517-1.19 7.928-6.014.482-7.456-1.797z" class="cls-3"
              transform="translate(-192.195 -231.756)"/>
        <path id="Path_10" d="M155.077 266.094c.235-1.647 4.394-12.561 4.445-12.616.086-.1 2.3 11.55 2.065 13.2s-2.121 3.475-3.728 3.245a3.649 3.649 0 0 1-2.782-3.829z" class="cls-3"
              transform="translate(-155.052 -231.648)"/>
        <path id="Path_11" d="M223.779 165.473c-1.468.785-12.728 3.876-12.8 3.869-.13-.012 7.96-8.68 9.425-9.465s4.055-.344 4.822 1.089a3.65 3.65 0 0 1-1.447 4.507z" class="cls-3"
              transform="translate(-199.491 -159.492)"/>
    </g>
    <g id="Group_4" transform="rotate(-117.97 70.29 44.068)">
        <path id="Path_8-2" d="M19.809 10.555C17.176 9.958.088 1.794 0 1.7-.147 1.548 18.972-.492 21.6.1s5.336 3.885 4.753 6.452-3.914 4.599-6.544 4.003z" class="cls-3"
              transform="translate(10.901 13.905)"/>
        <path id="Path_9-2" d="M7.781 20.255C6.338 17.976 0 .128 0 0c.005-.21 14.984 11.845 16.427 14.124s1.037 6.517-1.19 7.928-6.014.481-7.456-1.797z" class="cls-3"
              transform="translate(9.275 19.604)"/>
        <path id="Path_10-2" d="M.025 12.617C.26 10.97 4.42.056 4.471 0c.086-.1 2.3 11.55 2.065 13.2s-2.121 3.475-3.728 3.245a3.649 3.649 0 0 1-2.783-3.828z" class="cls-3"
              transform="translate(0 21.829)"/>
        <path id="Path_11-2" d="M12.806 5.98C11.338 6.765.078 9.857 0 9.85-.13 9.838 7.96 1.17 9.425.385s4.055-.344 4.822 1.089a3.65 3.65 0 0 1-1.441 4.506z" class="cls-3"
              transform="translate(11.482)"/>
    </g>
    <path id="Path_16" d="M76.686 0a78.84 78.84 0 0 0-12.86 1.18q-1.446.24-2.878.541-3.379.7-6.673 1.744a67.939 67.939 0 0 0-4.617 1.626l-.218.086q-.881.348-1.756.711c-.72.3-1.438.606-2.151.927a.117.117 0 0 1-.03.012 71.07 71.07 0 0 0-5.781 2.868q-1.251.69-2.464 1.433c-.221.132-.439.267-.657.4a72.113 72.113 0 0 0-5.851 4.063q-1.345 1.017-2.655 2.081-2.022 1.638-3.916 3.428-1.881 1.77-3.628 3.672-.418.453-.827.917c-.267.3-.53.6-.792.9a85.887 85.887 0 0 0-4.092 5.159q-1.822 2.446-3.421 5.042a.325.325 0 0 1-.023.037l-.035.056q-.345.557-.678 1.119a69.978 69.978 0 0 0-2.388 4.388l-.021.042A84.573 84.573 0 0 0 5.1 49.655q-.324.822-.622 1.651-.84 2.306-1.514 4.671a75.401 75.401 0 0 0-.7 2.629.147.147 0 0 0 0 .016c-.009.037-.019.072-.026.107q-.564 2.324-.973 4.678Q.7 66.619.379 69.869v.033a70.466 70.466 0 0 0-.365 7.827v.265q.024 2.54.237 5.073c.012.149.026.3.037.446a82.808 82.808 0 0 0 1.159 8.445c.049.262.1.525.151.787q.582 2.944 1.421 5.83a71.081 71.081 0 0 0 1.963 5.816 87.887 87.887 0 0 0 3.177 7.284 68.92 68.92 0 0 0 3.472 6.218l.146.232a69.44 69.44 0 0 0 2.959 4.322c.137.186.274.372.413.555 1.579 2.1 3.219 4.15 4.977 6.1a71.944 71.944 0 0 0 4.7 4.738q1.226 1.129 2.508 2.188a79.68 79.68 0 0 0 2.755 2.2c.262.2.525.406.79.611q1.16.9 2.362 1.737 1.038.732 2.107 1.426c.293.19.585.381.88.567q1.345.854 2.729 1.635t2.82 1.528c1.893.973 3.839 1.842 5.8 2.664q.759.321 1.526.629 3.16 1.275 6.441 2.232 1.087.321 2.186.6l.03.007.037.009q1.972.509 3.972.906c1.226.244 2.46.453 3.7.636q2.143.324 4.3.539c2.276.239 4.562.358 6.849.379a80.618 80.618 0 0 0 14.7-1.317 70.7 70.7 0 0 0 12.726-3.521 79.551 79.551 0 0 0 12.8-6.139 70.416 70.416 0 0 0 5.3-3.526 89.772 89.772 0 0 0 5.988-4.752 71.536 71.536 0 0 0 8.838-9.209q1.08-1.345 2.111-2.724c.163-.216.325-.432.485-.648a69.751 69.751 0 0 0 4.583-7.012q.4-.7.787-1.4.906-1.658 1.714-3.37a88.458 88.458 0 0 0 2.9-6.828c.327-.859.634-1.728.927-2.6.058-.174.118-.351.174-.527q.61-1.864 1.108-3.76a78.389 78.389 0 0 0 2.165-12.115q.233-2.132.332-4.278.153-3.167.021-6.341a69.193 69.193 0 0 0-.091-1.761 78.299 78.299 0 0 0-.439-4.583q-.178-1.439-.4-2.873l-.1-.634a70.17 70.17 0 0 0-1.373-6.636q-.4-1.571-.88-3.119-.652-2.129-1.44-4.209a92.869 92.869 0 0 0-2.7-6.41 69.555 69.555 0 0 0-4.074-7.5c-.149-.239-.3-.476-.451-.715a64.99 64.99 0 0 0-.885-1.347q-.617-.916-1.259-1.816a85.795 85.795 0 0 0-5.24-6.619q-.491-.561-1-1.113-1.435-1.575-2.961-3.064-1.254-1.223-2.569-2.376l-.067-.06-.067-.058a10.784 10.784 0 0 0-.125-.109l-.016-.014-.132-.116q-.923-.8-1.872-1.57a94.048 94.048 0 0 0-3.858-2.978q-1.038-.763-2.1-1.486l-.288-.2a71 71 0 0 0-11.414-6.25l-.339-.146q-1.759-.766-3.547-1.466-2.146-.843-4.346-1.535a72.022 72.022 0 0 0-5.428-1.48 66.775 66.775 0 0 0-3.289-.676A88.994 88.994 0 0 0 83.731.29q-1.7-.157-3.4-.23L80.2.053A91.439 91.439 0 0 0 77.248 0h-.562zm9.228 12.609a71.6 71.6 0 0 1 16.535 4.513 71.5 71.5 0 0 1 7.846 4.018l.009.007c.037.023.074.044.111.065l.014.007c.035.021.072.042.107.065l.019.012.1.056a.232.232 0 0 0 .033.019l.088.053.037.021c.03.019.06.037.091.053a.232.232 0 0 0 .033.019l.1.058.028.016.1.06a.156.156 0 0 1 .026.016l.1.06.028.016c.028.019.058.035.086.053l.039.026.084.051.039.026.079.049.044.028.079.049.044.028c.023.014.046.03.072.044s.035.021.051.033l.077.049.046.028.074.046.049.03.079.049.044.028c.026.016.049.033.074.046l.049.03c.026.016.051.033.074.049a.525.525 0 0 1 .046.03l.077.049.044.028.079.051.042.028c.026.016.051.033.074.049l.046.03.079.051.042.028c.026.016.051.035.079.051l.044.028.081.053c.014.009.026.016.037.026l.086.056.033.021.093.063a.241.241 0 0 1 .026.019l.1.063c.009 0 .016.012.026.016.035.023.07.046.1.07l.014.009.107.072a.023.023 0 0 1 .012.009c.079.053.156.107.235.158q1.46.993 2.871 2.056a72.6 72.6 0 0 1 10.4 10.1l.021.023.149.177.049.058c.039.046.079.093.118.142.028.033.053.063.079.1l.091.109.107.13c.019.023.039.046.058.072l.139.17a.4.4 0 0 0 .028.033c.183.225.367.453.548.683a72.149 72.149 0 0 1 8.475 14.5 71.745 71.745 0 0 1 4.517 16.537 72.736 72.736 0 0 1 0 17.508 71.686 71.686 0 0 1-4.517 16.53 72.014 72.014 0 0 1-8.468 14.484 72.547 72.547 0 0 1-11.8 11.8 72.134 72.134 0 0 1-14.479 8.464 71.629 71.629 0 0 1-16.565 4.522 72.605 72.605 0 0 1-17.478 0 71.666 71.666 0 0 1-16.511-4.508 72.2 72.2 0 0 1-14.5-8.466 72.627 72.627 0 0 1-11.831-11.831q-.456-.606-.9-1.222l-.007-.009-.07-.1-.019-.026-.051-.072-.035-.049-.039-.056c-.013-.019-.033-.044-.046-.065l-.021-.03-.065-.091a.05.05 0 0 0-.009-.012 72.083 72.083 0 0 1-7.2-12.746 71.659 71.659 0 0 1-4.515-16.542c0-.033-.007-.065-.012-.1l-.007-.053c0-.03-.007-.063-.012-.093s0-.035-.007-.053-.007-.058-.009-.086l-.007-.07c0-.023 0-.049-.009-.072s0-.049-.009-.072a.721.721 0 0 0-.009-.074c0-.026 0-.051-.009-.077l-.007-.07c0-.026 0-.051-.009-.077l-.007-.07c0-.028-.007-.056-.009-.084s0-.042-.007-.06-.007-.056-.009-.084l-.007-.063c0-.03-.007-.06-.009-.091a.414.414 0 0 1 0-.053c0-.03-.007-.06-.009-.091a.451.451 0 0 1 0-.056c0-.033-.007-.065-.009-.1v-.039c0-.035-.007-.072-.009-.107v-.039c0-.037-.007-.074-.012-.111v-.033c0-.037-.007-.074-.009-.114v-.039c0-.037-.007-.077-.009-.116v-.023c0-.042-.007-.084-.012-.123v-.028c0-.042-.007-.084-.012-.123a.04.04 0 0 0 0-.016c0-.042-.007-.086-.012-.13a.064.064 0 0 0 0-.021l-.046-.581a72.946 72.946 0 0 1-.177-7.439v-.144-.163-.146-.121a.226.226 0 0 1 0-.039v-.109a.3.3 0 0 1 0-.044v-.1-.063-.086-.067-.074-.081-.065-.1-.042-.107-.044l.007-.116a.072.072 0 0 1 0-.023l.007-.125a.1.1 0 0 1 0-.026q.129-2.418.42-4.824a71.648 71.648 0 0 1 4.406-16.284c0-.012.009-.023.014-.033l.035-.086.028-.067.021-.053a.258.258 0 0 1 .016-.037 72.12 72.12 0 0 1 8.482-14.5q1.46-1.843 3.036-3.584a8.67 8.67 0 0 1 .183-.2.032.032 0 0 0 .007-.009c.06-.067.121-.132.181-.2l.009-.009.181-.2.009-.009.183-.2.009-.009.208-.196.019-.019.177-.188.016-.016c.058-.063.118-.123.177-.186a.15.15 0 0 0 .011-.025l.172-.181c.007-.009.016-.016.023-.026l.17-.177a.279.279 0 0 0 .026-.028l.167-.172c.009-.012.021-.021.03-.033.053-.056.107-.109.163-.165.012-.014.026-.026.037-.037l.16-.16.039-.039.153-.153.049-.049.15-.146.056-.056.139-.139c.021-.021.042-.042.063-.06l.132-.13.074-.072.118-.116.086-.084c.037-.037.077-.074.114-.109l.091-.088.1-.1.1-.1.091-.086.118-.111.077-.072c.044-.042.088-.084.135-.125.021-.021.042-.039.065-.06l.146-.137.046-.044.165-.153.033-.03.179-.165a.1.1 0 0 1 .016-.014l.2-.181q1.817-1.645 3.732-3.168 1.85-1.394 3.786-2.664l.111-.074.012-.007.1-.063a.344.344 0 0 1 .03-.019l.086-.056.037-.023.07-.044.058-.037.049-.03.079-.051.023-.014c.035-.021.067-.044.1-.065a71.968 71.968 0 0 1 9.924-5.3 71.622 71.622 0 0 1 16.546-4.52 71.919 71.919 0 0 1 17.48-.019z" class="cls-4"
          transform="translate(-.01)"/>
    <path id="Path_17" d="M228.243 526.883a45.427 45.427 0 0 0-5.467 1 40.615 40.615 0 0 0-5.807 1.979 34.754 34.754 0 0 0-9.063 5.941 15.435 15.435 0 0 0-3.4 3.707c.1-.077.2-.153.3-.232a13.011 13.011 0 0 1 2.894-1.415 42.524 42.524 0 0 1 10.045-2.685 50.456 50.456 0 0 1 12.222.534 59.473 59.473 0 0 1 13.086 3.586 44.28 44.28 0 0 1 8.032 4.924c2.954 2.422 5.7 5.107 8.6 7.583a89.319 89.319 0 0 0 7.184 5.558c1.475 1.017 3 1.974 4.552 2.873a44.658 44.658 0 0 0 6.095 2.882 51.123 51.123 0 0 0 11.62 2.857 38.119 38.119 0 0 0 5.565.376 41.548 41.548 0 0 0 6.366-.608 123.3 123.3 0 0 0 15.074-3.825c1.751-.513 3.523-1.024 5.226-1.689-2.378-.044-4.759-.321-7.13-.509a238.078 238.078 0 0 0-5.344-.374c-3.194-.181-6.383-.464-9.551-.931a47.039 47.039 0 0 1-10.5-3.21 62.29 62.29 0 0 1-5.47-2.785A45.462 45.462 0 0 1 278.3 549c-2.58-2.081-5.056-4.269-7.532-6.475-1.034-.922-2.039-1.879-3.077-2.8a91.53 91.53 0 0 0-3.714-3.124 59.737 59.737 0 0 0-5.591-4.123 38.388 38.388 0 0 0-4.792-2.513 39.885 39.885 0 0 0-6.45-2.327 46.675 46.675 0 0 0-6.668-1.117c-1.407-.137-2.82-.2-4.232-.2a65.748 65.748 0 0 0-8 .553zm-20.4 10.928l-.128.051c.042-.019.086-.035.128-.051zm-3.015 1.456z" class="cls-5"
          transform="translate(-157.011 -404.084)"/>
    <g id="Group_3" transform="rotate(111 45.529 67.446)">
        <path id="Path_8-3" d="M19.809 10.555C17.176 9.958.088 1.794 0 1.7-.147 1.548 18.972-.492 21.6.1s5.336 3.885 4.753 6.452-3.914 4.599-6.544 4.003z" class="cls-3"
              transform="translate(10.901 13.905)"/>
        <path id="Path_9-3" d="M7.781 20.255C6.338 17.976 0 .128 0 0c.005-.21 14.984 11.845 16.427 14.124s1.037 6.517-1.19 7.928-6.014.481-7.456-1.797z" class="cls-3"
              transform="translate(9.275 19.604)"/>
        <path id="Path_10-3" d="M.025 12.617C.26 10.97 4.42.056 4.471 0c.086-.1 2.3 11.55 2.065 13.2s-2.121 3.475-3.728 3.245a3.649 3.649 0 0 1-2.783-3.828z" class="cls-3"
              transform="translate(0 21.829)"/>
        <path id="Path_11-3" d="M12.806 5.98C11.338 6.765.078 9.857 0 9.85-.13 9.838 7.96 1.17 9.425.385s4.055-.344 4.822 1.089a3.65 3.65 0 0 1-1.441 4.506z" class="cls-3"
              transform="translate(11.482)"/>
    </g>
</svg>
