<svg xmlns="http://www.w3.org/2000/svg" width="297.244" height="105.419" viewBox="0 0 297.244 105.419">
    <defs>
        <style>
            .cls-1{fill:#00467f}.cls-2{fill:#efac18}.cls-3{fill:#b91137}
        </style>
    </defs>
    <g id="Group_35" transform="translate(-913.128 -451.735)">
        <path id="Path_20"
              d="M51.611 107.731h-5.072Q34.989 74.21 21.472 37.242q-6.685-18.3-8.592-21.4a8.526 8.526 0 0 0-2.536-2.674Q8.025 11.69-.01 9.855V5.7q16.259.777 20.761.773 5.977 0 19.221-.773v4.155q-8.385 2.113-9.824 3.244a3.383 3.383 0 0 0-1.442 2.746q0 1.484 2.962 10.282Q44.783 65.9 52.11 84.63L71.4 32.746q-4.718-12.887-6.37-15.774a10.644 10.644 0 0 0-3.414-3.945q-1.76-1.052-10-3.172V5.7q13.094.777 20.276.773 7.51 0 19.614-.773v4.155l-2.536.629q-5.849 1.13-7.536 2.471a3.453 3.453 0 0 0-1.055 2.752 7.73 7.73 0 0 0 .138 1.481q.423 1.838 7.818 23.258l15.138 43.063q4.866-13.389 11.7-34.255L125.692 17.1a8.267 8.267 0 0 0 .21-1.763 2.209 2.209 0 0 0-.773-1.868q-.777-.6-10.492-3.624V5.7q13.094.777 17.111.773 4.787 0 16.128-.773v4.155q-8.031 2.113-10 3.663a9.883 9.883 0 0 0-2.392 3.519q-1.828 4.011-16.475 45.278-.423 1.052-15.492 45.422h-4.858L81.338 59.5q-2.32-6.478-6.2-16.266-9.378 24.15-23.527 64.497z"
              class="cls-1"
              transform="translate(913.138 449.417)"/>
        <path id="Path_21"
              d="M227.05 64.646V60.7a88.652 88.652 0 0 0 22.255-9.011l1.828 1.481q-1.406 14.932-1.409 42.322 0 12.819.636 15.774a4.886 4.886 0 0 0 1.481 2.851c.7.59 3.146 1.488 7.32 2.713.518.138 1.291.374 2.326.7v3.945q-9.23-.777-15.138-.773-3.588 0-19.293.773v-3.945q9.506-2.32 10.7-4.26t1.2-20.244l-.072-15v-2.89q0-7.884-1.055-9.509a3.729 3.729 0 0 0-3.382-1.619q-1.483.002-7.397.638z"
              class="cls-1"
              transform="translate(834.881 433.566)"/>
        <path id="Path_22"
              d="M251.75-1c2.572 0 4.753 1.545 6.541 3.334a8.915 8.915 0 0 1 2.679 6.541 8.918 8.918 0 0 1-2.679 6.492 8.827 8.827 0 0 1-6.541 2.719 8.732 8.732 0 0 1-6.451-2.719 8.919 8.919 0 0 1-2.679-6.492 8.9 8.9 0 0 1 2.68-6.541C247.087.545 249.235-1 251.75-1z"
              class="cls-2"
              transform="translate(827.48 453.692)"/>
        <path id="Path_23"
              d="M285.18 9.9A132.515 132.515 0 0 0 307.717.54l1.691 1.481q-.777 9.869-1.055 19.975t-.282 44.917l17.17-16.469a55.682 55.682 0 0 0 5.138-5.276 2.815 2.815 0 0 0 .7-1.684 1.984 1.984 0 0 0-.813-1.579c-.537-.446-1.868-.76-3.978-.944v-3.945q9.437.777 14.09.773 3.381 0 14.935-.773v3.945q-9.3 2.113-12.216 3.657t-10.879 8.723L320.11 64.174 340.039 89q4.365 5.416 7.464 7.314t11.056 3.8v3.735q-9.653-.777-14.719-.773-3.519 0-17.537.773V99.91a15.868 15.868 0 0 0 4.181-1.271 1.731 1.731 0 0 0 .636-1.343 3.331 3.331 0 0 0-.564-1.7q-.845-1.484-6.835-8.932l-15.65-19.744q0 20.673.42 25.388a6.287 6.287 0 0 0 1.481 4.076q1.268 1.268 7.111 2.674a28.653 28.653 0 0 1 3.028.845v3.945q-10.636-.777-15.912-.773-3.588 0-18.31.773V99.9q8.375-1.691 9.47-2.779t1.376-7.15q.285-8.031.282-45.206l-.138-19.575c0-.609.013-1.232.033-1.868s.033-1.3.033-2.005q0-5.564-1.094-6.9t-3.906-1.337a51.449 51.449 0 0 0-6.763.636z"
              class="cls-1"
              transform="translate(814.846 451.195)"/>
        <path id="Path_24"
              d="M401.01 64.646V60.7a88.655 88.655 0 0 0 22.255-9.011l1.828 1.481q-1.406 14.932-1.409 42.322 0 12.819.635 15.774a4.885 4.885 0 0 0 1.481 2.851c.7.59 3.146 1.488 7.32 2.713.518.138 1.291.374 2.326.7v3.945q-9.23-.777-15.138-.773-3.588 0-19.293.773v-3.945q9.506-2.32 10.7-4.26t1.2-20.244l-.072-15v-2.89q0-7.884-1.055-9.509a3.729 3.729 0 0 0-3.381-1.619q-1.483.002-7.397.638z"
              class="cls-1"
              transform="translate(774.925 433.566)"/>
        <path id="Path_25"
              d="M425.72 0a8.917 8.917 0 0 1 6.541 2.667 8.856 8.856 0 0 1 2.678 6.512 8.859 8.859 0 0 1-2.678 6.463 8.847 8.847 0 0 1-6.541 2.707 8.752 8.752 0 0 1-6.451-2.707 8.859 8.859 0 0 1-2.678-6.463 8.838 8.838 0 0 1 2.678-6.512A8.808 8.808 0 0 1 425.72 0z"
              class="cls-3"
              transform="translate(765.623 453.348)"/>
    </g>
</svg>
