<svg xmlns="http://www.w3.org/2000/svg" width="278.331" height="227.854" viewBox="0 0 278.331 227.854">
    <defs>
        <style>
            .cls-1{fill:#393d6a}.cls-2{fill:#56597a}.cls-3{fill:#f087b1}.cls-4{fill:#f7d16f}.cls-5{fill:#74a3d7}.cls-6{fill:#fff}.cls-7{fill:#b6c8e8}.cls-8{fill:#57455e}.cls-9{fill:none;stroke:#393d6a;stroke-linecap:round;stroke-width:25px}
        </style>
    </defs>
    <g id="pluto-searching" transform="translate(-109.483 -54.166)">
        <path id="Path_167" d="M374.863 116.262c-13.513-16.709-33.9-26.008-54.147-31.626a270.07 270.07 0 0 0-33.951-6.829c-14-2.034-28.188-3.487-42.281-2.276-24.313 2.131-46.931 12.98-64.851 29.35-18.4 16.806-31.239 38.988-39.085 62.478-4.165 12.5-7.652 26.008-5.86 39.279 1.744 12.786 8.137 25.136 14.82 35.985 2.422 3.971 5.085 7.846 7.894 11.575a1.419 1.419 0 0 0 .387 1.017c.63.678 1.259 1.356 1.937 1.986.291.339.581.727.872 1.066a1.343 1.343 0 0 0 .823.484 55.28 55.28 0 0 0 9.686 6.974A136.257 136.257 0 0 0 190 280.156c11.091 6.829 23.393 10.413 36.276 11.769 13.8 1.453 27.9 1.017 41.749.533a335.087 335.087 0 0 0 37.535-3c21.407-3.2 43.976-10.364 58.022-27.8 7.991-9.88 12.35-21.891 16.225-33.854 4.359-13.367 8.33-26.977 10.365-40.925 3.676-24.413.77-50.808-15.309-70.617z" class="cls-1"
              transform="translate(-24.722 -20.923)"/>
        <path id="Path_104" d="M304.743 104.265c-9.575-11.841-24.024-18.43-38.37-22.411a191.384 191.384 0 0 0-24.059-4.839c-9.919-1.441-19.975-2.471-29.962-1.613-17.229 1.51-33.257 9.2-45.955 20.8-13.042 11.909-22.137 27.628-27.7 44.274-2.952 8.855-5.423 18.43-4.153 27.834 1.236 9.061 5.766 17.812 10.5 25.5 1.716 2.814 3.6 5.56 5.594 8.2a1.006 1.006 0 0 0 .275.721c.446.48.892.961 1.373 1.407.206.24.412.515.618.755a.951.951 0 0 0 .583.343 39.173 39.173 0 0 0 6.864 4.942 96.559 96.559 0 0 0 13.385 10.228 60.423 60.423 0 0 0 25.706 8.34c9.781 1.03 19.769.721 29.584.378A237.449 237.449 0 0 0 255.63 227c15.17-2.265 31.163-7.345 41.116-19.7 5.663-7 8.752-15.513 11.5-23.99 3.089-9.472 5.9-19.117 7.345-29 2.609-17.303.546-36.01-10.848-50.045z" class="cls-2"
              transform="translate(12.775 10.812)"/>
        <path id="Path_105" d="M334.827 232.679a1.1 1.1 0 0 0 .039-.514c-.237-2.056-.554-5.853-2.61-7.039-2.017-1.186-5.378.751-7.237 1.5a80.471 80.471 0 0 0-16.53 8.937c-2.056 1.424-4.745 3.045-5.892 5.339a4.3 4.3 0 0 0 1.5 5.774c2.491 1.542 5.932 1.859 8.779 2.333a11.023 11.023 0 0 0 7.909-1.265 64.44 64.44 0 0 0 7.672-5.853 33.419 33.419 0 0 0 6.723-7.632 1.078 1.078 0 0 0-.353-1.58z" class="cls-3"
              transform="translate(-102.592 -91.415)"/>
        <path id="Path_106" d="M416.935 288.406c-2.808-5.773-8.858-.751-12.694 3.282-2.333 2.056-4.9 4.113-6.525 6.644-1.779 2.768-2.254 6.564-3.084 9.688-.475 1.819-.989 3.6-1.384 5.418-.277 1.3-.909 3.243-.475 4.587.83 2.531 4.627 1.661 6.446.989 5.853-2.1 10.479-7.909 13.722-12.971 3.045-4.743 6.802-11.943 3.994-17.637z" class="cls-3"
              transform="translate(-157.335 -128.318)"/>
        <path id="Path_107" d="M337.749 315.99a99.048 99.048 0 0 1-11.389-4.785 1.251 1.251 0 0 0-1.345.158 1.019 1.019 0 0 0-.989.119 30.412 30.412 0 0 0-10.361 12.1 1.182 1.182 0 0 0 .712 1.74 3.891 3.891 0 0 0 3.717-.633c-.633 1.147-1.3 2.333-1.938 3.48-.83 1.463-2.61 3.757-.949 5.259.949.91 2.135.514 3.124-.119a42.758 42.758 0 0 0-2.331 5.34c-.316.91.91 1.938 1.74 1.345a35.324 35.324 0 0 0 7.118-7.039c.04.04.04.079.079.119 1.621 1.859 3.915-.4 5.062-1.582a38.93 38.93 0 0 0 8.621-14.078 1.253 1.253 0 0 0-.871-1.424z" class="cls-4"
              transform="translate(-109.508 -143.604)"/>
        <path id="Path_108" d="M355.024 307.251c-1.78-2.1-4.508-3.6-6.723-5.18-2.768-2.017-5.5-3.994-8.265-6.011a1 1 0 0 0-1.542.4 1.552 1.552 0 0 0-.554.119c-4.152 2.1-3.717 7.434-1.226 10.638a23.845 23.845 0 0 0 6.209 5.22c2.175 1.345 4.706 2.729 7.316 2.847 4.31.116 7.949-4.316 4.785-8.033z" class="cls-5"
              transform="translate(-122.393 -134.39)"/>
        <path id="Path_109" d="M392.849 197.471c-1.7-5.694-8.7-4.35-12.971-2.768-5.655 2.1-10.914 5.5-16.095 8.581-11.508 6.8-22.659 14.671-31 25.269a1.3 1.3 0 0 0-.158 1.345 30.667 30.667 0 0 0 19.812 20.326c2.135.672 5.1 1.7 7.316.909 2.412-.83 4.113-4.113 5.576-5.971 4.31-5.457 8.66-10.914 12.931-16.371 3.915-4.983 7.909-10.044 10.993-15.62 2.568-4.429 5.138-10.559 3.596-15.7z" class="cls-6"
              transform="translate(-120.99 -72.42)"/>
        <path id="Path_110" d="M416.817 234.609a1.145 1.145 0 0 0-.356-.633c-3.559-3.124-9.609-2.689-12.1 1.463-2.57 4.31-2.491 10.282 1.74 13.524a8.717 8.717 0 0 0 12.219-1.74c2.926-3.954 1.7-9.213-1.503-12.614z" class="cls-3"
              transform="translate(-163.385 -95.757)"/>
        <path id="Path_111" d="M447.224 188.557c-6.525-1.028-13.841 3.124-18.547 6.96a1.081 1.081 0 0 0-.435.791 1.2 1.2 0 0 0-.474 1.621 23.387 23.387 0 0 0 13.445 11.27c2.294.751 5.813 1.859 7.909.079a13.183 13.183 0 0 0 2.452-3.6 25.456 25.456 0 0 0 2.056-4.469c1.701-5.059-.039-11.663-6.406-12.652z" class="cls-5"
              transform="translate(-178.489 -69.438)"/>
        <path id="Path_112" d="M421.488 246.256a5.108 5.108 0 0 0-1.859-3.361c-2.729-2.65-7.355-.435-8.66 2.649-1.542 3.638.791 8.067 4.9 8.265 4.195.198 6.093-3.875 5.619-7.553z" class="cls-7"
              transform="translate(-168.135 -101.67)"/>
        <path id="Path_113" d="M539.942 138.454c-.514-3.48-3.52-7.83-7.158-8.739-5.5-3.243-10.519 2.254-11.626 7.355-.554 2.649-.435 5.259 1.463 7.355a13.049 13.049 0 0 0 7.632 3.717 8.379 8.379 0 0 0 9.689-9.688z" class="cls-7"
              transform="translate(-234.866 -33.374)"/>
        <path id="Path_114" d="M188.977 321.874c-1.74-6.327-7.83-9.53-13.8-10.914a.97.97 0 0 0-.672-.475c-5.655-1.424-10.44 2.966-11.626 8.265a14.5 14.5 0 0 0 5.418 14.671 13.789 13.789 0 0 0 14.948 1.107c4.467-2.57 7.155-7.592 5.732-12.654z" class="cls-7"
              transform="translate(-18.234 -143.082)"/>
        <path id="Path_115" d="M515.738 418.7a16.016 16.016 0 0 0-16.767-11.428 1.173 1.173 0 0 0-.87.514 10.806 10.806 0 0 0-7.593 6.05c-3.005 6.525-3.164 14.276 2.175 19.614 4.35 4.35 11.863 6.723 17.439 3.282 5.734-3.556 7.395-11.94 5.616-18.032z" class="cls-4"
              transform="translate(-215.248 -201.71)"/>
        <path id="Path_116" d="M265.11 206.522a8.543 8.543 0 0 0-8.5-5.5c-4.231-1.542-7.434 2.966-7.909 6.92-.277 2.294-.237 4.943 1.345 6.762 1.5 1.74 4.271 2.61 6.446 3.084 2.214.514 4.587.475 6.406-1.068a10.306 10.306 0 0 0 3.519-5.734 5.8 5.8 0 0 0-1.307-4.464z" class="cls-3"
              transform="translate(-70.245 -76.884)"/>
        <path id="Path_117" d="M350.007 128.442a13.169 13.169 0 0 0-10.835-9.728c-4.271-1.7-8.7 1.7-10.519 5.655-2.175 4.627-3.045 11.152 1.3 14.829 3.6 3.045 10.321 3.678 14.711 2.254 5.106-1.661 6.45-8.344 5.343-13.01z" class="cls-5"
              transform="translate(-117.574 -27.038)"/>
        <path id="Path_118" d="M334.833 433.929a1.08 1.08 0 0 0-.633-.435c-.04 0-.079 0-.079-.04a4.511 4.511 0 0 0-.751-.4 1.115 1.115 0 0 0-1.3.119 8.249 8.249 0 0 0-2.966 16.095c4.666 1.582 10.361.475 11.389-4.983.865-4.464-2.101-8.062-5.66-10.356z" class="cls-5"
              transform="translate(-115.489 -217.253)"/>
        <path id="Path_119" d="M612.695 343.095a1.363 1.363 0 0 0-.514-.4c-4.31-1.819-9.807.277-11.468 4.745-1.661 4.508.831 9.965 5.536 11.27a8.665 8.665 0 0 0 10.756-6.09c.831-3.673-.87-8.181-4.31-9.525z" class="cls-5"
              transform="translate(-282.823 -162.325)"/>
        <path id="Path_120" d="M621.51 234.818a10.233 10.233 0 0 0-7.434-7.83 1.463 1.463 0 0 0-.435-.2 10.63 10.63 0 0 0-11.468 4.35 10.961 10.961 0 0 0 1.028 12.773 11.524 11.524 0 0 0 12.931 2.966c4.785-2.015 6.486-7.314 5.378-12.059z" class="cls-3"
              transform="translate(-283.058 -92.446)"/>
        <path id="Path_121" d="M570 301.255a2.237 2.237 0 0 0-.514 0 1.857 1.857 0 0 1-1.147-.554 1.448 1.448 0 0 0-.633-1.74 1.188 1.188 0 0 0-2.333.277 4.55 4.55 0 0 0 .316 1.621 4.089 4.089 0 0 1-.949 1.226 3.218 3.218 0 0 0-2.215 1.384 1.2 1.2 0 0 0 1.345 1.74 8.019 8.019 0 0 0 1.661-.791 4.462 4.462 0 0 1 1.068 2.175c.2 1.3 2.412 1.028 2.333-.316-.04-.791-.237-2.491.791-2.61H570a1.207 1.207 0 0 0 0-2.412z" class="cls-4"
              transform="translate(-259.94 -135.75)"/>
        <path id="Path_122" d="M487.439 327.521a3.189 3.189 0 0 0-1.463.4 1.414 1.414 0 0 1-.87-.435 5.181 5.181 0 0 0 0-1.107c-.158-1.384-2.175-1.5-2.373-.316a1.161 1.161 0 0 0-.277.751 3.37 3.37 0 0 0 .119.91 2.717 2.717 0 0 1-1.7 1.779c-.079.04-.2.079-.277.119-1.226.514-.356 2.61.909 2.175a1.462 1.462 0 0 0 .435-.2 2.036 2.036 0 0 1 2.412 1.7c.277 1.5 2.491.87 2.294-.633a4.1 4.1 0 0 1 .119-2.373 3.016 3.016 0 0 0 1.226-.514c.907-.677.707-2.335-.554-2.256z" class="cls-4"
              transform="translate(-210.162 -152.169)"/>
        <path id="Path_123" d="M433.828 416.19a3.223 3.223 0 0 0-1.226.237c-.514-.158-.633-.87-.435-1.424a.949.949 0 0 0-.514-1.3c-.672-.791-2.215-.554-2.1.672a3.207 3.207 0 0 1-1.147 2.847 4.447 4.447 0 0 0-2.57.989 1.187 1.187 0 0 0 .83 2.017 5.271 5.271 0 0 0 2.333-.633 1.607 1.607 0 0 1 .791.751 2.93 2.93 0 0 0 .277 1.265 1.2 1.2 0 0 0 2.333-.316 4.544 4.544 0 0 0-.158-1.3 1.606 1.606 0 0 1 .909-1.265 3.515 3.515 0 0 0 1.226-.316 1.179 1.179 0 0 0-.549-2.224z" class="cls-4"
              transform="translate(-177.193 -205.367)"/>
        <path id="Path_124" d="M257.918 365.732c-.079.04-.2.079-.277.119h-.04c-.079.04-.119.079-.2.079a1.384 1.384 0 0 1-1.424-.237 5.424 5.424 0 0 0 .316-2.412c-.158-1.424-2.333-1.5-2.373-.2l-.119.237a3.483 3.483 0 0 0-.277 2.056 2.728 2.728 0 0 1-.633.712 3.542 3.542 0 0 0-1.226.712c-.87.751.04 2.412 1.147 1.977a6.3 6.3 0 0 0 1.147-.593.979.979 0 0 1 1.028.949 4.867 4.867 0 0 0-.079.791 1.2 1.2 0 0 0 2.333.316 4.322 4.322 0 0 0 .158-.949 1.811 1.811 0 0 1 .751-1.028 2.2 2.2 0 0 0 .672-.356c1.112-.67.401-2.687-.904-2.173z" class="cls-4"
              transform="translate(-71.91 -174.484)"/>
        <path id="Path_125" d="M216.891 212.636h-1.147l-.119-1.582c-.079-1.5-2.452-1.542-2.373 0l.119 1.582h-.04a1.187 1.187 0 0 0 0 2.373h.158l.079 1.186c.079 1.5 2.452 1.542 2.373 0l-.079-1.186h1.028a1.187 1.187 0 0 0 .001-2.373z" class="cls-4"
              transform="translate(-48.243 -82.444)"/>
        <path id="Path_126" d="M272.582 466.123h-.791v-.791a1.187 1.187 0 0 0-2.373 0v.791h-1.186a1.187 1.187 0 0 0 0 2.373h1.186v.791a1.187 1.187 0 0 0 2.373 0v-.787h.791a1.188 1.188 0 0 0 0-2.377z" class="cls-4"
              transform="translate(-81.433 -236.16)"/>
        <path id="Path_127" d="M440.7 135.291a5.612 5.612 0 0 1-1.582.475 14.166 14.166 0 0 0-.356-1.78c-.356-1.5-2.61-.87-2.294.633.079.435.2.87.237 1.3-.2 0-.4-.04-.633-.04-1.5-.2-1.5 2.175 0 2.373.316.04.633.04.91.079.04.356.04.751.079 1.147.079 1.5 2.452 1.542 2.373 0 0-.435-.04-.87-.079-1.3a11.08 11.08 0 0 0 2.452-.791c1.507-.672.281-2.728-1.107-2.096z" class="cls-4"
              transform="translate(-182.922 -36.024)"/>
        <path id="Path_128" d="M617.316 172.356a1.2 1.2 0 0 0-.514-1.977 1.642 1.642 0 0 1-1.266-1.977 1.064 1.064 0 0 0-.079-.791v-.356c-.079-1.5-2.452-1.542-2.373 0a4.763 4.763 0 0 1-.633 2.689 1.863 1.863 0 0 0-1.384 3.124 1.2 1.2 0 0 0 1.424.2 4.209 4.209 0 0 0 .435-.356 1.781 1.781 0 0 0 .4.356 4.448 4.448 0 0 1 .475.83 7.579 7.579 0 0 1 .435 1.226 5.6 5.6 0 0 0 .158.791c.4 1.5 2.531.83 2.294-.633-.04-.158-.079-.316-.119-.514a3.563 3.563 0 0 1 .747-2.612z" class="cls-4"
              transform="translate(-289.106 -55.965)"/>
        <path id="Path_129" d="M513.211 439.677c-1.265-1.7-4.825-1.265-6.6-1.384-1.5-.119-1.5 2.254 0 2.373.909.079 1.819.158 2.729.2 1.028.079 2.056.119.712.949-1.3.83-3.48 1.068-4.943 1.463a89.981 89.981 0 0 1-10.717 2.1 83.234 83.234 0 0 1-10.875.712c-1.74 0-3.44-.04-5.18-.119-.633-.04-2.808.2-2.887-.87-.04-1.147 2.373-1.186 3.045-1.226 1.5-.079 1.542-2.452 0-2.373-1.977.119-4.31.435-5.18 2.531a2.865 2.865 0 0 0 1.859 4.034c2.808.712 6.169.435 9.056.4a92.283 92.283 0 0 0 9.926-.672c3.045-.4 6.05-.91 9.056-1.582 2.689-.633 5.971-1.147 8.423-2.491 1.418-.802 2.723-2.502 1.576-4.045z" class="cls-8"
              transform="translate(-205.96 -220.51)"/>
        <path id="Path_130" d="M606.181 367.382a30.147 30.147 0 0 1-4.627.119c-1.542-.119-1.5 2.254 0 2.373a22.644 22.644 0 0 0 4.627-.119c1.503-.198 1.503-2.571 0-2.373z" class="cls-8"
              transform="translate(-282.953 -177.636)"/>
        <path id="Path_131" d="M628.791 355.508a1.249 1.249 0 0 0-1.463-.83 24.539 24.539 0 0 1-3.8.277 1.187 1.187 0 0 0 0 2.373 33.44 33.44 0 0 0 4.429-.356 1.215 1.215 0 0 0 .834-1.464z" class="cls-8"
              transform="translate(-296.231 -169.954)"/>
        <path id="Path_132" d="M366.954 279.823a12.644 12.644 0 0 0-3.954-4.231c-3.44-2.57-7.158-3.638-10.519-.475a86.831 86.831 0 0 0-9.728 11.428c-.91 1.226 1.147 2.412 2.056 1.186a107.1 107.1 0 0 1 7.2-8.66c1.068-1.147 2.215-2.808 3.678-3.4 1.9-.83 4.073.514 5.615 1.621.91.633 3.2 2.373 3.48 3.519.316 1.384-1.582 3.638-2.333 4.785a75.753 75.753 0 0 1-6.6 8.858c-.989 1.147.672 2.847 1.661 1.661a77.683 77.683 0 0 0 8.463-11.745c.902-1.502 1.812-2.886.981-4.547z" class="cls-8"
              transform="translate(-127.047 -120.685)"/>
        <path id="Path_133" d="M171.965 346.607c-2.57-.158-5.141-.356-7.711-.514-1.542-.119-1.5 2.254 0 2.373 2.57.158 5.141.356 7.711.514 1.543.12 1.503-2.254 0-2.373z" class="cls-8"
              transform="translate(-18.582 -164.77)"/>
        <path id="Path_134" d="M209.144 329.493a21.585 21.585 0 0 0-8.858-.475c-1.5.237-.87 2.531.633 2.294a18.221 18.221 0 0 1 7.593.475 1.191 1.191 0 0 0 .632-2.294z" class="cls-8"
              transform="translate(-40.536 -154.299)"/>
        <path id="Path_135" d="M528.818 157.519a37.288 37.288 0 0 1-5.141-.237c-1.5-.2-1.5 2.175 0 2.373a31.767 31.767 0 0 0 5.141.237 1.187 1.187 0 0 0 0-2.373z" class="cls-8"
              transform="translate(-235.881 -50.619)"/>
        <path id="Path_136" d="M550.151 140.565a15.215 15.215 0 0 1-3.8.237c-1.542-.079-1.5 2.294 0 2.373a18.433 18.433 0 0 0 4.429-.316c1.506-.278.873-2.571-.629-2.294z" class="cls-8"
              transform="translate(-249.582 -40.506)"/>
        <path id="Path_137" d="M279.873 219.309a13.091 13.091 0 0 0-4.943.475 1.19 1.19 0 0 0 .633 2.294 10.62 10.62 0 0 1 4.31-.4c1.503.162 1.503-2.211 0-2.369z" class="cls-8"
              transform="translate(-85.68 -88.089)"/>
        <path id="Path_138" d="M257.135 210.214a25.255 25.255 0 0 0-5.18-.2c-1.5.119-1.542 2.491 0 2.373a22.251 22.251 0 0 1 4.587.119 1.185 1.185 0 1 0 .593-2.294z" class="cls-8"
              transform="translate(-71.602 -82.474)"/>
        <path id="Path_139" d="M355.567 459.8h-3.836a1.187 1.187 0 0 0 0 2.373h3.836a1.187 1.187 0 0 0 0-2.373z" class="cls-8"
              transform="translate(-131.913 -233.515)"/>
        <path id="Path_140" d="M332.8 448.591c-2.215-.316-4.469-.593-6.683-.91-1.5-.2-2.135 2.1-.633 2.294 2.215.316 4.469.593 6.683.91 1.466.197 2.133-2.096.633-2.294z" class="cls-8"
              transform="translate(-116.227 -226.181)"/>
        <path id="Path_141" d="M613.591 252.38a9.162 9.162 0 0 0-2.768-.672c-1.265-.277-1.9-1.226-2.847-2.017a6.288 6.288 0 0 0-5.259-1.265.572.572 0 0 0-.277.079 1.115 1.115 0 0 0-.593.158c-1.384.633-1.147 2.768-.87 3.994a9.134 9.134 0 0 0 2.57 4.627 9.654 9.654 0 0 0 1.582 1.265 7.909 7.909 0 0 0 8.581 2.056.637.637 0 0 0 .277-.158l.237-.119c2.767-1.502 1.739-6.603-.633-7.948z" class="cls-5"
              transform="translate(-283.166 -105.659)"/>
        <path id="Path_142" d="M642 235.636a11.774 11.774 0 0 0-2.649-5.18 7.206 7.206 0 0 0-1.028-1.78 1.865 1.865 0 0 0-1.384-.83.957.957 0 0 0-1.3-.079c-2.452 1.819-1.661 4.469-.554 6.881a44.706 44.706 0 0 0 2.61 4.9c.593.989 1.3 2.452 2.689 2.333 2.645-.155 1.973-4.623 1.616-6.245z" class="cls-5"
              transform="translate(-303.272 -93.107)"/>
        <path id="Path_143" d="M359.323 145.505c-.593-1.661-2.1-1.78-3.6-1.147-2.1.83-3.084 2.768-4.31 4.469a4.365 4.365 0 0 1-2.847 2.1 8.8 8.8 0 0 0-2.649.554 5.668 5.668 0 0 0-3.243 4.389 1.33 1.33 0 0 0 1.621 1.463c7.005 4.544 17.876-3.761 15.028-11.828z" class="cls-3"
              transform="translate(-127.128 -42.599)"/>
        <path id="Path_144" d="M334.335 124.138c-.554-.751-1.384-1.938-2.452-1.938-1.186 0-2.1 1.424-2.729 2.215a17.759 17.759 0 0 0-3.678 9.056.928.928 0 0 0 .514 1.028 1.083 1.083 0 0 0 .83 1.068c2.966.87 4.9-.949 5.932-3.559.593-1.5 2.135-2.333 2.61-3.875a4.749 4.749 0 0 0-1.027-3.995z" class="cls-3"
              transform="translate(-116.731 -29.418)"/>
        <path id="Path_145" d="M363.117 124.466c-.554-2.254-3.638-3.005-5.5-3.678a.954.954 0 0 0-.989.158 1.054 1.054 0 0 0-.593.514c-1.028 1.9-2.056 4.192-.91 6.327a3.533 3.533 0 0 0 5.022 1.345c1.665-.832 3.484-2.571 2.97-4.666z" class="cls-3"
              transform="translate(-134.362 -28.52)"/>
        <path id="Path_146" d="M535.332 243.8a1.187 1.187 0 0 0 0 2.373 1.187 1.187 0 0 0 0-2.373z" class="cls-6"
              transform="translate(-242.909 -102.931)"/>
        <path id="Path_147" d="M574.886 197.1a1.216 1.216 0 0 0-1.186 1.186v.237a1.19 1.19 0 0 0 1.186 1.186 1.216 1.216 0 0 0 1.186-1.186v-.237a1.19 1.19 0 0 0-1.186-1.186z" class="cls-6"
              transform="translate(-266.804 -74.696)"/>
        <path id="Path_148" d="M493.132 256.7a1.187 1.187 0 0 0 0 2.373 1.187 1.187 0 0 0 0-2.373z" class="cls-6"
              transform="translate(-217.397 -110.73)"/>
        <path id="Path_149" d="M529.276 318.416l-.237-.237a1.174 1.174 0 0 0-1.661 1.661l.237.237a1.174 1.174 0 0 0 1.661-1.661z" class="cls-6"
              transform="translate(-238.594 -147.69)"/>
        <path id="Path_150" d="M558.732 373.5a1.187 1.187 0 0 0 0 2.373 1.187 1.187 0 0 0 0-2.373z" class="cls-6"
              transform="translate(-257.056 -181.342)"/>
        <path id="Path_151" d="M465.932 383.2a1.187 1.187 0 0 0 0 2.373 1.187 1.187 0 0 0 0-2.373z" class="cls-6"
              transform="translate(-200.953 -187.206)"/>
        <path id="Path_152" d="M434.832 461.7a1.187 1.187 0 0 0 0 2.373 1.187 1.187 0 0 0 0-2.373z" class="cls-6"
              transform="translate(-182.152 -234.663)"/>
        <path id="Path_153" d="M391.776 403.316l-.237-.237a1.174 1.174 0 1 0-1.661 1.661l.237.237a1.174 1.174 0 0 0 1.661-1.661z" class="cls-6"
              transform="translate(-155.468 -199.017)"/>
        <path id="Path_154" d="M205.832 409.8a1.187 1.187 0 0 0 0 2.373 1.187 1.187 0 0 0 0-2.373z" class="cls-6"
              transform="translate(-43.709 -203.287)"/>
        <path id="Path_155" d="M268.732 420.9a1.187 1.187 0 0 0 0 2.373 1.187 1.187 0 0 0 0-2.373z" class="cls-6"
              transform="translate(-81.735 -209.997)"/>
        <path id="Path_156" d="M249.232 295.7a1.187 1.187 0 0 0 0 2.373 1.187 1.187 0 0 0 0-2.373z" class="cls-6"
              transform="translate(-69.947 -134.307)"/>
        <path id="Path_157" d="M208.154 261.7a1.381 1.381 0 0 0-.949-.4 1.282 1.282 0 0 0-1.3 1.265 1.658 1.658 0 0 0 .158.633 1.408 1.408 0 0 0 .712.554 2.09 2.09 0 0 0 .514.04 1.073 1.073 0 0 0 1.028-.554 1.252 1.252 0 0 0 .158-.633 1.41 1.41 0 0 0-.321-.905z" class="cls-6"
              transform="translate(-44.45 -113.511)"/>
        <path id="Path_158" d="M294.032 300.9a1.187 1.187 0 0 0 0 2.373 1.187 1.187 0 0 0 0-2.373z" class="cls-6"
              transform="translate(-97.031 -137.451)"/>
        <path id="Path_159" d="M316.686 200.3a1.216 1.216 0 0 0-1.186 1.186v.237a1.19 1.19 0 0 0 1.186 1.186 1.216 1.216 0 0 0 1.186-1.186v-.237a1.19 1.19 0 0 0-1.186-1.186z" class="cls-6"
              transform="translate(-110.709 -76.63)"/>
        <path id="Path_160" d="M283.821 141.9h-.237a1.19 1.19 0 0 0-1.186 1.186 1.216 1.216 0 0 0 1.186 1.186h.237a1.186 1.186 0 0 0 0-2.373z" class="cls-6"
              transform="translate(-90.695 -41.327)"/>
        <path id="Path_161" d="M407.976 177.978a1.181 1.181 0 0 0-1.661 0l-.237.237a1.174 1.174 0 1 0 1.661 1.661l.237-.237a1.181 1.181 0 0 0 0-1.661z" class="cls-6"
              transform="translate(-165.262 -62.932)"/>
        <path id="Path_162" d="M479.532 110.1a1.187 1.187 0 0 0 0 2.373 1.187 1.187 0 0 0 0-2.373z" class="cls-6"
              transform="translate(-209.175 -22.102)"/>
        <path id="Path_163" d="M506.132 183.4a1.187 1.187 0 0 0 0 2.373 1.187 1.187 0 0 0 0-2.373z" class="cls-6"
              transform="translate(-225.256 -66.416)"/>
        <path id="Path_164" d="M610.786 229.808a4.3 4.3 0 0 0-.712.04 5.065 5.065 0 0 0-3.005 2.491 1.1 1.1 0 0 0 1.107 1.7.935.935 0 0 0 .356.316 4.792 4.792 0 0 0 2.294.475 3.032 3.032 0 0 0 4.192-1.78c.672-2.372-2.218-4.191-4.232-3.242z" class="cls-5"
              transform="translate(-286.846 -94.317)"/>
        <path id="Path_165" d="M212.548 360.359a23.657 23.657 0 0 1-4.429-.4c-1.5-.277-2.135 1.977-.633 2.294a27.129 27.129 0 0 0 5.062.514 1.208 1.208 0 0 0 0-2.408z" class="cls-8"
              transform="translate(-44.889 -173.144)"/>
        <path id="Path_166" d="M323.881 224.7c6.744 38.9 45.745 40.035 45.745 40.035" class="cls-9" transform="translate(5.688 4.785)"/>
    </g>
</svg>
